<svg xmlns="http://www.w3.org/2000/svg" viewBox="0 0 436 436"><defs><style>.cls-1,.cls-2{fill:none;stroke:#000;stroke-miterlimit:10;stroke-width:25px;}.cls-1{stroke-linecap:round;}</style></defs><title>Middel 5</title><g id="Laag_2" data-name="Laag 2"><g id="logo_4" data-name="logo 4"><path class="cls-1" d="M281,245v1c0,19-13.6,27-31,27s-32-13.1-32-30.5v-48"/><path class="cls-1" d="M344,163.5v78c0,17.4-13.6,31.5-31,31.5s-32-8-32-27V215.75"/><path class="cls-1" d="M155,191v-1c0-19-11.44-27-31.5-27A31.5,31.5,0,0,0,92,194.5v78"/><path class="cls-1" d="M218,194.5A31.5,31.5,0,0,0,186.5,163c-17.4,0-31.5,9-31.5,28v1l.5,22.75"/><circle class="cls-2" cx="218" cy="218" r="205.5"/></g></g></svg>